<svg xmlns="http://www.w3.org/2000/svg"
     viewBox="0 0 2447.6 2452.5"
     width="1835.7" height="1839.4"
     preserveAspectRatio="xMidYMid">
    <defs>
        <clipPath id="clip">
            <rect x="0" y="0" width="2447.6" height="2452.5"/>
        </clipPath>

        <filter id="softShadow" x="-30%" y="-30%" width="160%" height="160%">
            <feGaussianBlur in="SourceAlpha" stdDeviation="28" result="blur"/>
            <feOffset in="blur" dx="0" dy="28" result="offsetBlur"/>
            <feColorMatrix in="offsetBlur" type="matrix"
                           values="0 0 0 0 0
                             0 0 0 0 0
                             0 0 0 0 0
                             0 0 0 0.28 0" result="shadow"/>
            <feMerge>
                <feMergeNode in="shadow"/>
            </feMerge>
        </filter>

        <linearGradient id="blueGrad" x1="18%" y1="8%" x2="85%" y2="100%">
            <stop offset="0%" stop-color="#6EE6FF"/>
            <stop offset="42%" stop-color="#36C5F0"/>
            <stop offset="100%" stop-color="#1F8FBC"/>
            <animate attributeName="stop-color" values="#36C5F0;#56D7FF;#36C5F0" dur="5.8s" repeatCount="indefinite"/>
        </linearGradient>

        <linearGradient id="greenGrad" x1="18%" y1="8%" x2="85%" y2="100%">
            <stop offset="0%" stop-color="#73E3A9"/>
            <stop offset="42%" stop-color="#2EB67D"/>
            <stop offset="100%" stop-color="#1E8C60"/>
            <animate attributeName="stop-color" values="#2EB67D;#57D89A;#2EB67D" dur="6s" repeatCount="indefinite"/>
        </linearGradient>

        <linearGradient id="yellowGrad" x1="18%" y1="8%" x2="85%" y2="100%">
            <stop offset="0%" stop-color="#FFE48E"/>
            <stop offset="42%" stop-color="#ECB22E"/>
            <stop offset="100%" stop-color="#C88912"/>
            <animate attributeName="stop-color" values="#ECB22E;#FFD36C;#ECB22E" dur="6.2s" repeatCount="indefinite"/>
        </linearGradient>

        <linearGradient id="redGrad" x1="18%" y1="8%" x2="85%" y2="100%">
            <stop offset="0%" stop-color="#FF79A1"/>
            <stop offset="42%" stop-color="#E01E5A"/>
            <stop offset="100%" stop-color="#B81C4A"/>
            <animate attributeName="stop-color" values="#E01E5A;#FF4F8A;#E01E5A" dur="6.1s" repeatCount="indefinite"/>
        </linearGradient>

        <!-- 轻微高光，用来做表面反射感 -->
        <linearGradient id="shine" x1="-120%" y1="0%" x2="220%" y2="0%">
            <stop offset="0%" stop-color="#FFFFFF" stop-opacity="0"/>
            <stop offset="46%" stop-color="#FFFFFF" stop-opacity="0"/>
            <stop offset="50%" stop-color="#FFFFFF" stop-opacity="0.30"/>
            <stop offset="54%" stop-color="#FFFFFF" stop-opacity="0"/>
            <stop offset="100%" stop-color="#FFFFFF" stop-opacity="0"/>
            <animate attributeName="x1" from="-120%" to="120%" dur="4.2s" repeatCount="indefinite"/>
            <animate attributeName="x2" from="0%" to="240%" dur="4.2s" repeatCount="indefinite"/>
        </linearGradient>

        <!-- 轻微顶部提亮 -->
        <radialGradient id="topGlow" cx="38%" cy="24%" r="72%">
            <stop offset="0%" stop-color="#FFFFFF" stop-opacity="0.24"/>
            <stop offset="45%" stop-color="#FFFFFF" stop-opacity="0.08"/>
            <stop offset="100%" stop-color="#FFFFFF" stop-opacity="0"/>
        </radialGradient>
    </defs>

    <g filter="url(#softShadow)">
        <path d="m897.4 0c-135.3.1-244.8 109.9-244.7 245.2-.1 135.3 109.5 245.1 244.8 245.2h244.8v-245.1c.1-135.3-109.5-245.1-244.9-245.3m0 654h-652.6c-135.3.1-244.9 109.9-244.8 245.2-.2 135.3 109.4 245.1 244.7 245.3h652.7c135.3-.1 244.9-109.9 244.8-245.2.1-135.4-109.5-245.2-244.8-245.3z"
              fill="#36C5F0" opacity="0.22"/>
        <path d="m2447.6 899.2c.1-135.3-109.5-245.1-244.8-245.2-135.3.1-244.9 109.9-244.8 245.2v245.3h244.8c135.3-.1 244.9-109.9 244.8-245.3zm-652.7 0v-654c.1-135.2-109.4-245-244.7-245.2-135.3.1-244.9 109.9-244.8 245.2v654c-.2 135.3 109.4 245.1 244.7 245.3 135.3-.1 244.9-109.9 244.8-245.3z"
              fill="#2EB67D" opacity="0.22"/>
        <path d="m1550.1 2452.5c135.3-.1 244.9-109.9 244.8-245.2.1-135.3-109.5-245.1-244.8-245.2h-244.8v245.2c-.1 135.2 109.5 245 244.8 245.2zm0-654.1h652.7c135.3-.1 244.9-109.9 244.8-245.2.2-135.3-109.4-245.1-244.7-245.3h-652.7c-135.3.1-244.9 109.9-244.8 245.2-.1 135.4 109.4 245.2 244.7 245.3z"
              fill="#ECB22E" opacity="0.22"/>
        <path d="m0 1553.2c-.1 135.3 109.5 245.1 244.8 245.2 135.3-.1 244.9-109.9 244.8-245.2v-245.2h-244.8c-135.3.1-244.9 109.9-244.8 245.2zm652.7 0v654c-.2 135.3 109.4 245.1 244.7 245.3 135.3-.1 244.9-109.9 244.8-245.2v-653.9c.2-135.3-109.4-245.1-244.7-245.3-135.4 0-244.9 109.8-244.8 245.1"
              fill="#E01E5A" opacity="0.22"/>
    </g>

    <g fill="none">
        <g id="logoCore">
            <path d="m897.4 0c-135.3.1-244.8 109.9-244.7 245.2-.1 135.3 109.5 245.1 244.8 245.2h244.8v-245.1c.1-135.3-109.5-245.1-244.9-245.3m0 654h-652.6c-135.3.1-244.9 109.9-244.8 245.2-.2 135.3 109.4 245.1 244.7 245.3h652.7c135.3-.1 244.9-109.9 244.8-245.2.1-135.4-109.5-245.2-244.8-245.3z"
                  fill="url(#blueGrad)"/>

            <path d="m2447.6 899.2c.1-135.3-109.5-245.1-244.8-245.2-135.3.1-244.9 109.9-244.8 245.2v245.3h244.8c135.3-.1 244.9-109.9 244.8-245.3zm-652.7 0v-654c.1-135.2-109.4-245-244.7-245.2-135.3.1-244.9 109.9-244.8 245.2v654c-.2 135.3 109.4 245.1 244.7 245.3 135.3-.1 244.9-109.9 244.8-245.3z"
                  fill="url(#greenGrad)"/>

            <path d="m1550.1 2452.5c135.3-.1 244.9-109.9 244.8-245.2.1-135.3-109.5-245.1-244.8-245.2h-244.8v245.2c-.1 135.2 109.5 245 244.8 245.2zm0-654.1h652.7c135.3-.1 244.9-109.9 244.8-245.2.2-135.3-109.4-245.1-244.7-245.3h-652.7c-135.3.1-244.9 109.9-244.8 245.2-.1 135.4 109.4 245.2 244.7 245.3z"
                  fill="url(#yellowGrad)"/>

            <path d="m0 1553.2c-.1 135.3 109.5 245.1 244.8 245.2 135.3-.1 244.9-109.9 244.8-245.2v-245.2h-244.8c-135.3.1-244.9 109.9-244.8 245.2zm652.7 0v654c-.2 135.3 109.4 245.1 244.7 245.3 135.3-.1 244.9-109.9 244.8-245.2v-653.9c.2-135.3-109.4-245.1-244.7-245.3-135.4 0-244.9 109.8-244.8 245.1"
                  fill="url(#redGrad)"/>

            <animateTransform attributeName="transform"
                              type="scale"
                              values="1;1.008;1"
                              dur="4s"
                              repeatCount="indefinite"/>
        </g>

        <!-- 顶部柔光，增强“材质面” -->
        <g clip-path="url(#clip)">
            <g opacity="0.85">
                <path d="m897.4 0c-135.3.1-244.8 109.9-244.7 245.2-.1 135.3 109.5 245.1 244.8 245.2h244.8v-245.1c.1-135.3-109.5-245.1-244.9-245.3m0 654h-652.6c-135.3.1-244.9 109.9-244.8 245.2-.2 135.3 109.4 245.1 244.7 245.3h652.7c135.3-.1 244.9-109.9 244.8-245.2.1-135.4-109.5-245.2-244.8-245.3z"
                      fill="url(#topGlow)"/>
                <path d="m2447.6 899.2c.1-135.3-109.5-245.1-244.8-245.2-135.3.1-244.9 109.9-244.8 245.2v245.3h244.8c135.3-.1 244.9-109.9 244.8-245.3zm-652.7 0v-654c.1-135.2-109.4-245-244.7-245.2-135.3.1-244.9 109.9-244.8 245.2v654c-.2 135.3 109.4 245.1 244.7 245.3 135.3-.1 244.9-109.9 244.8-245.3z"
                      fill="url(#topGlow)"/>
                <path d="m1550.1 2452.5c135.3-.1 244.9-109.9 244.8-245.2.1-135.3-109.5-245.1-244.8-245.2h-244.8v245.2c-.1 135.2 109.5 245 244.8 245.2zm0-654.1h652.7c135.3-.1 244.9-109.9 244.8-245.2.2-135.3-109.4-245.1-244.7-245.3h-652.7c-135.3.1-244.9 109.9-244.8 245.2-.1 135.4 109.4 245.2 244.7 245.3z"
                      fill="url(#topGlow)"/>
                <path d="m0 1553.2c-.1 135.3 109.5 245.1 244.8 245.2 135.3-.1 244.9-109.9 244.8-245.2v-245.2h-244.8c-135.3.1-244.9 109.9-244.8 245.2zm652.7 0v654c-.2 135.3 109.4 245.1 244.7 245.3 135.3-.1 244.9-109.9 244.8-245.2v-653.9c.2-135.3-109.4-245.1-244.7-245.3-135.4 0-244.9 109.8-244.8 245.1"
                      fill="url(#topGlow)"/>
            </g>

        </g>
    </g>
</svg>